# xmcd
#
# Track frame offsets:
#	150
#	12670
#	25175
#	38427
#	52091
#	65040
#	78619
#	91244
#	103885
#	116529
#	130323
#	145404
#	158161
#	172970
#	186949
#	200221
#
# Disc length: 2840 seconds
#
# Revision: 0
# Processed by: cddbd v1.5.2PL0 Copyright (c) Steve Scherf et al.
# Submitted via: EasyCDDAExtractor 11.5.3.1
#
DISCID=e70b1610
DTITLE=Various Artist - Blues Box 2
DYEAR=1976
DGENRE=Blues
TTITLE0=Bea Foote - Try and Get It
TTITLE1=Bea Foote - I Want a Long Time Daddy
TTITLE2=Jimmie Gordon's Vip Vop Band - Do That Thing
TTITLE3=Jimmie Gordon's Vip Vop Band - The Mojo Blues
TTITLE4=Creole George Guesnon - Mississippi Town
TTITLE5=Creole George Guesnon - Goodbye, Good Luck to You
TTITLE6=Fat Hayden - A Brown Skin Gal is the Best Gal After All
TTITLE7=Fat Hayden - Voo Doo Blues
TTITLE8=Babe Hines - I've Lost My Head Over You
TTITLE9=Rosetta Howard - Come Easy Go Easy
TTITLE10=Rosetta Howard - My Blues Is Like Whiskey
TTITLE11=Helen Humes With The Pete Brown Band - Mount Bayou
TTITLE12=Helen Humes With The Pete Brown Band - Unlucky Woman
TTITLE13=Helen Humes With The Pete Brown Band - Gonna Buy Me A Telephone
TTITLE14=Alberta Hunter - Fine And Mellow
TTITLE15=Alberta Hunter - Someday Sweetheart
EXTD=
EXTT0=
EXTT1=
EXTT2=
EXTT3=
EXTT4=
EXTT5=
EXTT6=
EXTT7=
EXTT8=
EXTT9=
EXTT10=
EXTT11=
EXTT12=
EXTT13=
EXTT14=
EXTT15=
PLAYORDER=
